<svg width="39" height="20" viewBox="0 0 39 20" fill="none" xmlns="http://www.w3.org/2000/svg">
<path d="M4.44922 1C5.808 3.85433 10.9714 9.563 20.7546 9.563" stroke="#B80528" stroke-width="2"/>
<path d="M4.76279 18.2908C6.12157 15.4364 11.2849 9.72777 21.0682 9.72777" stroke="#B80528" stroke-width="2"/>
<path d="M1 1.16455C2.35878 4.01888 7.52216 9.72755 17.3054 9.72755" stroke="#B80528" stroke-width="2"/>
<path d="M1.31355 18.4553C2.67234 15.601 7.83571 9.89232 17.619 9.89232" stroke="#B80528" stroke-width="2"/>
<path d="M34.5515 1.16455C33.1927 4.01888 28.0293 9.72755 18.2461 9.72755" stroke="#B80528" stroke-width="2"/>
<path d="M34.2379 18.4553C32.8792 15.601 27.7158 9.89232 17.9325 9.89232" stroke="#B80528" stroke-width="2"/>
<path d="M38.0007 1.32935C36.6419 4.18368 31.4786 9.89235 21.6953 9.89235" stroke="#B80528" stroke-width="2"/>
<path d="M37.6872 18.6199C36.3284 15.7655 31.165 10.0569 21.3818 10.0569" stroke="#B80528" stroke-width="2"/>
</svg>
